<svg id="Layer_1" enable-background="new 0 0 48 48" height="512" viewBox="0 0 48 48" width="512" xmlns="http://www.w3.org/2000/svg"><path d="m7.349 41.471c-.447-.062-.46-.935.005-1 4.45-.566 8.829-.481 13.291-.027.455.057.466.929.008 1-4.328.919-8.956.834-13.304.027zm1.491-21.999c1.854-1.904 2.143-1.004.775.632-5.043 7.124.291 17.5 9.273 16.861 3.843.175 6.932-2.496 8.835-5.606-.182.008-.359.025-.544.027l-4.868-.017c-1.736-.014-3.359-.369-4.841-.393-.791-.033-2.902-.075-3.672-.133-.764.027-1.759-.315-1.501-1.324 2.507-4.512 5.138-9.198 7.983-13.698-2.027-.487-4.165-.365-6.14.523-.056 1.486-.192 2.967-.443 4.428-.125.605-.233 1.208-.338 1.833-.042.251-.299.427-.575.391-.227-.03-.395-.199-.425-.403-.098-1.681-.167-3.365-.2-5.05-.02.016-.042.027-.063.044-1.978 1.671-2.218.732-.652-.758.225-.205.464-.371.699-.552-.02-2.959.091-5.92.42-8.872.062-.522.934-.526 1-.004.388 2.507.615 5.076.604 7.64 2.23-1.013 4.664-1.135 6.978-.567 1.679-2.589 3.431-5.107 5.287-7.469 1.091-.816.416.73-.19 1.761-1.262 2.008-2.489 4.066-3.7 6.141 3.38 1.265 6.32 3.984 7.656 7.513.659 2.216.873 4.479.437 6.713.453-.029.917-.047 1.395-.037.407.037.801.076 1.188.115.089-1.264.214-2.532.378-3.807.064-.521.935-.523 1 0 .188 1.313.321 2.642.404 3.977 1.579.132 3.075.163 4.68-.131-1.078-2.549-3.023-5.47-4.474-8.027-.851-1.475-1.909-3.387-2.926-5.185-1.642-.073-3.287-.233-4.926-.433-.452-.058-.464-.931-.003-1 1.262-.263 2.544-.407 3.834-.479-.266-.457-.524-.898-.764-1.293-.796-1.164-1.94-2.895-2.619-4.094-.365-.705-.913-1.446-.757-1.958.39-.083 1.017.582 1.598 1.417 1.372 1.856 2.742 3.851 4.067 5.878 1.532-.023 3.068.033 4.59.106 1.025.041 2.213-.007 3.346.202.228.039.385.294.352.57-.027.227-.17.397-.342.43-2.193.517-4.423.706-6.667.697.913 1.444 1.806 2.888 2.64 4.296 1.795 3.105 4.18 5.939 5.214 9.447.015 1.645-3.803 1.697-6.762 1.516.066 3.11-.165 6.233-.732 9.265-.067.516-.94.52-1-.008-.274-3.163-.365-6.282-.238-9.413-.484-.046-.885-.087-1.132-.109-.62-.015-1.272.039-1.944.104-.049.126-.087.254-.141.38-2.053 4.031-6.283 7.651-10.999 7.35-10.318.521-16.435-11.454-10.055-19.437zm19.74 9.835c.509-2.009.408-4.385-.166-6.3-1.155-3.112-3.706-5.548-6.672-6.716-2.414 4.188-4.753 8.446-7.053 12.659 2.517.064 5.374.268 7.639.438 0 0 4.829-.003 4.829-.003.463 0 .939-.035 1.423-.078z"/></svg>