<svg viewBox="0 0 687 834" fill="none" xmlns="http://www.w3.org/2000/svg">
    <g id="avatar">
        <path id="neck"
              d="M269 396V363.5V354L268 343L267 328.5L269 323L281.5 316L357 299.5L430 316V338.5V349L429 366.5V384.5L430 407L432.5 421L436.5 427.5L446.5 437.5L458.5 442.5L448 471.5L405.5 504.5L351.5 516.5L299 500L258 471.5L262.5 450L267 419.5L269 396Z"
              fill="#FBD4AA" stroke="black"/>
        <path id="neckShadow"
              d="M270.5 362L268 340.5L272 342.5L277.5 345.5L284.5 350.5L291 354.5L296.5 359L303 363L310.5 368.5L318 372.5L328 376.5L339 378.5L348 379H358H367L377.5 376.5L385.5 374.5L393 370L398.5 367L403 363L406.5 360.5H413V366L412.5 370.5L411.5 376.5L409.5 382.5L407.5 388.5L404.5 395L401 403L396.5 409.5L393 414L386.5 420.5L380 425.5L374 428L370 428.5H366L362.5 428L359 427L353.5 422L346.5 417L336.5 408.5L328 402L320 398L316.5 397H314.5L314 399L315.5 404L318.5 411L321.5 418.5L326 429.5L327 433.5L328 437.5L327 439.5L325 440.5L320.5 439.5L314 434.5L302.5 423.5L291.5 408.5L280.5 389L274.5 374.5L270.5 362Z"
              fill="#B17C6C"/>
        <path id="tshirt"
              d="M280.5 456L251 445L228.5 484L239.5 520L271 551L335 561L416 546L469.5 521L480 479L456 435.5L442.5 442L423 453.5L405.5 460L383.5 464.5H363.5H342.5L307 462L280.5 456Z"
              fill="#DC9442" stroke="black" stroke-width="0.5"/>
        <path id="veste"
              d="M2 770.5V794L14 804L26.5 810L37.5 812L49 810L64.5 801L82.5 785L98.5 768L114.5 754L127.5 746.5L137.5 743H150L164.5 748.5L176 758L195 776L216.5 797L229.5 806L240 810.5L250 812L261.5 809.5L275.5 801.5L284 795L293 785.5L304.5 774.5L311.5 767L322.5 756.5L338 747L346 743.5L360.5 742.5L371.5 746.5L381.5 752L393.5 762.5L405 774L419 788L434 801.5L445.5 808.5L457 811.5H468L482 805.5L497 794L515.5 776L531 759.5L543 751L554.5 744.5L564.5 742.5L577 743.5L590 750L604 761L621 778.5L639.5 796.5L652.5 806L666.5 811.5H676.5L682.5 810.5L683 800.5L682.5 783.5L682 773.5L681 759.5L679.5 748.5L678 735L676.5 726L674 709L672.5 702.5L670 691L668 681L665 671L664.5 665.5L663.5 657L662 646L660.5 639L657.5 625L653 606L647 588.5L642.5 577.5L636.5 564L630.5 552.5L620.5 537.5L613 528.5L600.5 517.5L589.5 509L575 500L567.5 495L555 489L544 484L533.5 480L528.5 478.5L529 477L531 473.5L534 468.5L535.5 466.5L535 462L533.5 456L531 449L527.5 441.5L522 432.5L518 427.5L514.5 423.5L515.5 421.5L518 415L520 409L522 401.5L522.5 397L521.5 388L517 379.5L512.5 374L506.5 368.5L496.5 362.5L487 358.5L474 353.5L462.5 350L448 345.5L439 342.5L433.5 340.5L430 343.5L429.5 347.5V355L429 368V380V393.5L429.5 400L430 407.5L431 413L432 418L432.5 420.5L434 424L438.5 430L442 434L447 437.5L448.5 439L447.5 442.5L445.5 448L443 453.5L439 462.5L435 470L431.5 477L427 484L423 489.5L420 491.5L414.5 494.5L403.5 500L393 504.5L381.5 509.5L368.5 514.5L355.5 519L349.5 521.5L347 520.5L342 518L333.5 513L325.5 507L317 500L306.5 490L300 483L292.5 474L288.5 468.5L287.5 464L284 454L281.5 444.5L278 430.5L275 419.5L272 408.5L270.5 402V395L270 384V376L269.5 363L269 354L268.5 345.5L268 341.5L267 340H264L259 340.5L251.5 342L243 345L238.5 347L234 349.5L229 353L225 357L222 361L220.5 363.5L218.5 367.5L216.5 372.5L215.5 377.5L215 383.5L215.5 389V392.5L214 396L210.5 401L207.5 406L204.5 411.5L202 416.5L201 421.5L200.5 428L201 432.5L201.5 436L198.5 439.5L195.5 442.5L191.5 446.5L188 450.5L183 456L181 459.5L178.5 465.5L177.5 469.5V476.5L175 477L165.5 479.5L151.5 484.5L138 490L121.5 498.5L102.5 511.5L87 524.5L73.5 539L62.5 554L53 570L45.5 586.5L39.5 602.5L33 623L28.5 640L24.5 661L23 667L18 683L11.5 709.5L6 738.5L2 770.5Z"
              fill="#36434C" stroke="black"/>
        <g id="particles">
            <circle id="p24" cx="148.5" cy="670.5" r="7" fill="white"/>
            <circle id="p23" cx="220.676" cy="656.676" r="3.82329" transform="rotate(5.57136 220.676 656.676)"
                    fill="white"/>
            <circle id="p22" cx="99.1765" cy="729.176" r="3.82329" transform="rotate(5.57136 99.1765 729.176)"
                    fill="white"/>
            <circle id="p21" cx="268.677" cy="760.676" r="1.70076" transform="rotate(5.57136 268.677 760.676)"
                    fill="white"/>
            <circle id="p20" cx="198.358" cy="740.358" r="1.70076" transform="rotate(5.57136 198.358 740.358)"
                    fill="white"/>
            <circle id="p19" cx="333.214" cy="697.214" r="2.97906" transform="rotate(4.70709 333.214 697.214)"
                    fill="white"/>
            <circle id="p18" cx="435.813" cy="776.813" r="1.68083" transform="rotate(4.70709 435.813 776.813)"
                    fill="white"/>
            <circle id="p17" cx="571.313" cy="690.313" r="1.68083" transform="rotate(4.70709 571.313 690.313)"
                    fill="white"/>
            <circle id="p16" cx="621.313" cy="747.313" r="1.68083" transform="rotate(4.70709 621.313 747.313)"
                    fill="white"/>
            <circle id="p15" cx="89.6765" cy="645.676" r="0.794449" transform="rotate(7.30395 89.6765 645.676)"
                    fill="white"/>
            <circle id="p14" cx="249.389" cy="694.389" r="0.794449" transform="rotate(7.30395 249.389 694.389)"
                    fill="white"/>
            <circle id="p13" cx="63.3891" cy="688.389" r="2.84557" transform="rotate(7.30395 63.3891 688.389)"
                    fill="white"/>
            <circle id="p12" cx="100.694" cy="628.694" r="4.5" transform="rotate(99.706 100.694 628.694)" fill="white"/>
            <circle id="p11" cx="225.23" cy="684.494" r="7.5" transform="rotate(99.706 225.23 684.494)" fill="white"/>
            <circle id="p10" cx="473.445" cy="592.644" r="8.75202" transform="rotate(100.038 473.445 592.644)"
                    fill="white"/>
            <circle id="p9" cx="577.412" cy="715.412" r="5.10098" transform="rotate(100.038 577.412 715.412)"
                    fill="white"/>
            <circle id="p8" cx="581.412" cy="699.412" r="2.7075" transform="rotate(100.038 581.412 699.412)"
                    fill="white"/>
            <circle id="p7" cx="620.638" cy="687.638" r="1.63513" transform="rotate(100.038 620.638 687.638)"
                    fill="white"/>
            <circle id="p6" cx="627.667" cy="652.266" r="0.895227" transform="rotate(100.038 627.667 652.266)"
                    fill="white"/>
            <circle id="p5" cx="523.469" cy="636.416" r="14.3783" transform="rotate(100.038 523.469 636.416)"
                    fill="white"/>
            <circle id="p4" cx="455.696" cy="669.696" r="5.6263" transform="rotate(-160.256 455.696 669.696)"
                    fill="white"/>
            <circle id="p3" cx="375.696" cy="546.696" r="3.01429" transform="rotate(-160.256 375.696 546.696)"
                    fill="white"/>
            <circle id="p2" cx="214.355" cy="544.355" r="2.06736" transform="rotate(-160.256 214.355 544.355)"
                    fill="white"/>
            <circle id="p1" cx="418.494" cy="694.494" r="9.37716" transform="rotate(-160.256 418.494 694.494)"
                    fill="white"/>
        </g>
        <path id="earR"
              d="M463.5 222L459 225.5L455.5 231L453.5 239.5L446.5 250V272.5L450.5 277.5V285.5L454.5 286.5L458.5 288L462.5 287L466 285.5L468 283.5L471 281L472.5 277.5L475.5 272L477 265L478 257.5L480 251L481.5 242.5L482.5 235L482 231L480 226.5L478 223L471.5 218L465.5 218.5H464L463.5 222Z"
              fill="#EDC4AA" stroke="black"/>
        <g id="earRShadow">
            <path d="M469 241.5L468.935 246L468.63 249.5L468 254L468.935 253.151L470.152 249.145L471.37 243.907L473.196 238.052L472.5 235L471.065 232.198L467.413 229L465.5 227.5H463L464.978 229.733L465.891 230.657L467.413 233.122L468.63 236.82L469 241.5Z"
                  fill="#B17C6C"/>
            <path d="M455.543 251.61L455 248L454.63 251.919L454.326 257.157L454.022 262.087L452.5 272L452 275.5V279L453.413 280.884L455.239 281.5H457.37L457.978 278.11C458.181 275.645 458.587 270.653 458.587 270.407V266.093L457.978 260.547L457.065 256.233L455.543 251.61Z"
                  fill="#B17C6C"/>
        </g>
        <path id="earL"
              d="M231.5 216.5H235L239.5 220L246 231.5L253 244V266.5L249 271.5L246.5 278.5L245 280.5H240.5H237L233.5 279.5L231.5 277.5L228.5 275L227 271.5L225 265.5L223 258.5L221.5 251.5L219.5 245L218 236.5L217 229L217.5 225L219.5 220.5L221.5 217L223.5 215.5H226.5H229.5L231.5 216.5Z"
              fill="#EDC4AA" stroke="black"/>
        <g id="earRShadow_2">
            <path d="M226.657 236.5L226.722 241L227.023 244.5L227.648 249L226.722 248.151L225.515 244.145L224.309 238.907L222.5 233.052L223.189 230L224.611 227.198L228.229 224L230.125 222.5H232.602L230.642 224.733L229.737 225.657L228.229 228.122L227.023 231.82L226.657 236.5Z"
                  fill="#B17C6C"/>
            <path d="M239.989 246.61L240.528 243L240.894 246.919L241.195 252.157L241.497 257.087L243.005 267L243.5 270.5V274L242.1 275.884L240.291 276.5H238.18L237.577 273.11C237.376 270.645 236.974 265.653 236.974 265.407V261.093L237.577 255.547L238.482 251.233L239.989 246.61Z"
                  fill="#B17C6C"/>
        </g>
        <path id="face"
              d="M233.5 154.5L235 198.5L241.5 236.5L245.5 259L252.5 287.5L263 313.5L277.5 333.5L299.5 353.5L320.5 364L349 371.5L374.5 368L410 357.5L429.5 341L440 317L449.5 276L454 244L459.5 209V175.5L457 141.5L445 98.5L421 71L379.5 53.5L321.5 57.5L276.5 82L243.5 114L233.5 154.5Z"
              fill="#FBD4AA" stroke="black"/>
        <path id="faceShadow"
              d="M244.5 253.5L243 260.5L242 254.5L239.897 230L239 212.5V194L239.897 179.5L243 158.5L247.5 139L267 120L284 110L308.5 97.5L339 86L334.5 103L329.5 108.5L327.5 105.5L313.5 120L300 126L289.5 130.5L287.5 144.5L283.5 149L273 162L267 173L262 184L257 190L254 197.5L251.5 204L249 212V219.5L250.5 238.5L247.5 248L244.5 253.5Z"
              fill="#B17C6C"/>
        <path id="bear"
              d="M239 237.5L238.5 230L240 229L241.5 227L242 227.5V230L243 233L244 237L245 241L246 244L246.5 247.5L247.5 250L249.5 252.5L250.5 253.5L250 254.5L249 256.5V259L249.5 261.5L251 266L252 267.5L253 266.5V267.5V270L254 272.5L255 268V276L256.5 278L258 280.5V278L259 276.5L260 280.5L261 285.5L261.5 289L262.5 292.5L264 290V292.5L265.5 291L266 299H266.5L267.5 296L268 297.5L268.5 301L270 304.5L271.5 299.5V307L273 304V309.5L275 306V308.5L276 307.5V313L277 313.5L278 310.5L278.5 318L279.5 320L280.5 313L281 318.5L282.5 316.5L283 321.5L284.5 326L285 323.5L286 321L286.5 327.5L287.5 329.5L288.5 324L289 327.5L289.5 330L291 332.5L292 328.5L293.5 335L294.5 335.5L295 331.5L296.5 337L297.5 335L298.5 338L299.5 334L300.5 340L301.5 342L302 336.5L304 343L305 340.5L307 347L307.5 341L310.5 347L311.5 341L312.5 347L314 344L315.5 346.5L316.5 344L317.5 347L318.5 346.5L319.5 344.5L321.5 347L322 344.5L324 350L324.5 347L325.5 345L327.5 349L328.5 346L330.5 349L331 349.5L331.5 346.5L335.5 351.5L336 346.5L338.5 350.5L338 346L339.5 348.5L340 346.5L341.5 349L342 346L344 349.5L344.5 347L346.5 350L347.5 346.5L349 349.5L349.5 350L350.5 346.5L352 349.5L352.5 347L354.5 349.5L355.5 345.5L357.5 352.5L359 346.5L361 350L362.5 346L364 349.5L365 347L366.5 349.5L367 350L367.5 346L370.5 350L371.5 346.5L373.5 350L374.5 347L378 351L378.5 347.5L381.5 350.5L382 347L384 350.5L385 346.5L386.5 350H387.5L388.5 346L390.5 349H391.5L393 344.5L394 348.5L395 349L396 345L398 349L400 343.5L401 349H402L404 343.5L405.5 348L409 342.5V346.5L411 343.5V346.5L412.5 345L415 341L415.5 345L417 342.5L420 336.5V341.5L423 336.5L427 330V333L430.5 326.5L432 320.5L435 310.5L438.5 299L442.5 287L445 277L448 267L449.5 262.5L451 255L452 247.5V243L454.5 234.5L455 243V254L453.5 268L451 282.5L448 299L446 309L442.5 324L441 332L432.5 343.5L427 351L419 359L414 361.5L406.5 362L402.5 366L397.5 370L389 375L379.5 378L371 380.5H358H341L326 378L311.5 372L299 363L286 354L272.5 345L266 339L260.5 331L254.5 317L251.5 306.5L247 287.5L242 259L239 237.5Z"
              fill="#36434C"/>
        <g id="mustache">
            <path d="M304 275V287.5L304.5 288.5L307.5 285V286.5L310 283V286.5L311.5 285L312 286.5L314.5 283.5L316.5 282L317 284L319.5 281L320 283L322.5 280.5L323.5 281L325 280.5H326L329 277.5L329.5 279L331.5 276.5L332 277.5L334.5 276.5L335 277.5H336L337 276L338.5 274.5L339 275.5L342 274.5L344.5 271.5L346 272L348.5 268.5L346.5 267.5H343V265.5L338.5 269.5C338 269.333 337.1 268.9 337.5 268.5C337.9 268.1 336.667 268 336 268L330 271V269L325 272.5L323 270.5L318.5 274.5L317.5 273.5L313 277.5L311.5 273.5L305.5 279.5L304 275Z"
                  fill="#36434C"/>
            <path d="M358 272L357 268.5L358.5 267L359 265.5L360.5 267L361.5 265.5L362 267.5L362.5 266.5L364 268.5L364.5 266.5L366 268.5V266.5L367 268.5L368.5 269.5L370 268.5L372.5 270.5L373.5 269L376.5 272L377.5 270.5L379.5 273L380.5 272L383 274.5L383.5 272.5L385 274.5L385.5 273.5L387 275.5L387.5 273.5L391.5 278.5V277L393.5 279.5L394.5 278.5L396 279.5V283.5L395 286L393.5 284L392.5 284.5L390.5 282.5V284L389.5 283.5L388 282L387 283L386 281.5V283L385 282.5L383.5 281L382.5 282L380.5 280.5L378 279.5L377.5 281L376 279.5V280.5L374.5 280L371.5 278L370.5 279L368.5 277H366.5L364 274.5L363 275L361 272.5L360.5 273.5L359 273L358 272Z"
                  fill="#36434C"/>
        </g>
        <path id="hair"
              d="M241.5 228L238.5 230.5V226.5L238 223.5L237 219.5L235.5 216.5H233L231.5 216L231 213.5L230 210V204L228 201L223.5 195.5V190C223.5 189.6 222.833 186.167 222.5 184.5L220 178L219 172L218 165.5L217 162L215.5 158L214.5 152.5L214 148L213 146.5L210 145L206.5 142L203 138.5L201.5 135L199.5 130.5L198.5 126L197 120L197.5 112.5L198 117L198.5 121L200 124.5L200.5 121L201.2 119.6L200.5 119L199 115.5L198.5 111L199.5 108.5L200.565 107.587L200.5 107L201 104L203.5 99.5L202.5 104.5L202.344 106.062L203 105.5L206.5 103L209 101.5L212 100L211.5 99V97L210 94.5L212 96.5L213 98L214 97L213 96L211 95L209.5 92.5L209.429 92.2143L205.5 96.5L201 102L202.5 98.5L206.5 93L209.132 91.0263L209 90.5L208 88V86.9L206 87.5L203.5 90.5L202 94L201 99.5L200.5 94.5L202.5 89.5L205 85.5L208 84.25V83V80L209 76V80.5L211 79L213.5 77L217.5 76.5L219.5 77.5L218 78L214 79L211.5 80.5L211.233 82.3667L211.833 82.6667L213.5 82L218 80.5L221 80L224 81.5L222.5 80L221 78L219.5 76L218 74L217.5 70L218 66L218.5 68L221 70.5L222.5 73.5L221.5 73L223 76L225.5 78.5L227 78L224 75L223 72L222.5 70L223 67L223.5 65L224.5 63L226 61.5L228.5 60L233.5 59L232.5 59.5L230 60.5L228 63.5L226.5 66.5L225.5 71.5L227.5 73.5L229 74.1429V71.5L231.5 66.5L233.069 64.8103L233.5 60.5L237 53L240.5 49L241.591 48.4545L242 47.5L245 44.5L254 41.5L261 41L262.5 40.5L265 38.5L268 35.5L272 32.5L273.5 31.5L275.5 31H278.5L281 31.5L283.5 32H285L286 31.5L287.5 29.5L289.5 27.5L292.5 25L295.5 22.5L298.5 19.5L301.5 17.5L305 15.5L309 14L313 12.5L317.5 11.5H320.5L322 11L320 10L317.5 9H310.5L305 10.5L299 14L294 18.5L289 24L283 31L284 29.5L285.5 27L287 24.5L289.5 21L291.5 18L294 15.5L296 13L298 11.5L302 9.5L304.5 7.5L307 7L310 6H313.5H318L321.5 6.5L325 7.5L328 9L330.5 11L332 11.5H335L337 12L341.5 13.5L344.5 15L346.5 15.5V15L344 13L340 11L335 8L331.5 7L326 5.5L320.5 4L317 3.5L316.5 3L319.5 2.5L323 3L326.5 3.5L330 4.5L333.5 5.5L338 7L342 9L345.5 11L349.5 14L351.5 16L352.5 18L354 19.5L357 21L358 21.5L358.5 21V18L358 16L356.5 13L353 10.5L350.5 9L346.5 8L341 6.5H343H347.5L349.5 7L351.5 7.5L354.5 8.5L357 10L358.5 12L360 13.5L361 16.5V19L361.5 21L362.5 20V17.5V14L360.5 10.5L359 7.5L356 4.5L352.5 2.5L349.5 1L349 0L351.5 0.5L355 1.5L358 3L362.5 6L364.5 8.5L366.5 11.5L367.5 15.5V18H368.5H370.5H374L377 19.5L379 21L380 21.5L382 20.5L386.5 19L389.5 18.5L391 18L396.5 17.5H400.5L403.5 18L407 19L411 20.5L407 18L404.5 17L399 15.5L393 14.5H398L403 15.5L406 16L403.5 14.5L398.5 12.5L392.5 10.5L388.5 9.5L388 9H388.5H393L397 10L401.5 11.5L405 13L408.5 14.5L413.5 18L417 20.5L420.5 24.5L422.5 27C423 27.8333 424 29.6 424 30C424 30.4 424.667 32.5 425 33.5L426 34L428 37.5L429.5 41L431.5 44L433.5 48.5L434.5 52.5L435 54.5L435.5 54V50L434.5 47L433 41L431 37.5L429 34L427 31L426 28.5L427.5 29.5L429 31.5L431 34.5L432.5 37L434.5 40.5L435.5 44L437 49L437.5 53.5L438 60.5V63H439L439.5 62L440 60L440.5 57L441 54.5L441.5 50L441 46L440.5 41.5L440 38L439.5 35L438.5 31.5L437 28.5L435.5 25L433 22L428.5 17.5L424.5 14.5L421.5 13L421 12L425 13.5L430 16L433.5 19L437 22L440 26L442 30L443.5 35.5L445 40V39L445.5 31L446 39V43V52.5V56.5L445.5 60L445 62.5H446L446.5 62L448.5 60L450.5 58L452 56.5L454 54.5L455.5 54L454.5 55.5L453 58L449.5 61.5L447 64V66V67L449 68.5L449.5 70L452 69.5L454 69L462 65L465.5 63.5H466.5L458.5 68.5L456.5 70H457.5L461 69.5L464.5 69L468.5 68L473 66L478.5 63L482 60.5L484 59.5L483.5 60.5L477.5 65.5L471.5 69.5L465.5 71.5L460.754 72.2302L460 76L459.304 79.942L461 79L466.5 77L473 74.5L475.5 73.5L475 74.5L469.5 78L460.5 82.5L458.713 83.2943L458.5 84.5L458 90V93L460 95.5L463 100L468 104L473 109L479.5 115.5C480.333 116.333 482 118.1 482 118.5C482 118.9 484.333 122 485.5 123.5V124.5L485 124L481 121.5L477.5 119.5L472.5 118H468.5L471 120L474.5 123L479.5 128.5L483 134.5L484 137.5L481 135.5L477.5 132.5L474 130L470.5 129L473 133.5L476 138.5L477 141.5L475 140L472.5 138L473.5 141L474.5 144.5L475 149.5L476 153.5L475.5 153L473.5 151.5L472.5 150.5L473.5 154L474.5 157.5V170V183.5L474 188L473 193.5L472 199.5L470 205L468 210.5L465.5 215L463.5 217L464.5 219V221L463 223L458.5 226L455.5 230L454 237.5L453.5 244.5L451.5 242.5L451 235V230.5L451.5 225.5L452.5 218.5V214.5V207.5L451.5 196V190L451 180L450 173.5V170L449 164.5L446.5 160.5L445.5 155.5L445 152V145V141.5L445.5 137V132L445 127.5L444 123.5L443.5 121L442 117L440.5 113L438 109L436.5 107L436 108L435 110L434 111.5H432.5L430.5 110.5L429.5 108.5L429 106V103.5L428.5 102L426 104.5L425 105L424 104V100L424.5 97L425 94L425.5 91L424 89.5L421 87.5L417 85.5L413 85L407.5 84.5L404.5 85L400 86.5L400.5 85.5L403.5 84L406.5 83L408.5 82L404 81.5H399.5L395 80.5L389.5 79.5L385 78.5L381.5 77.5L377 76L374 74.5L370 72.5L368 71.5L367.5 72L365 74L363 76L360 77.5L357 79.5L354 81L351 82L348 82.5L345.5 83L343 84L341 86L339 88.5L337.5 91L336.5 94L335 96.5L333.5 100L333 102.5L331 104L330.5 103.5L329.5 102L328.5 99.5L327.5 96.5L326.5 93.5L326 94L325 96L324.5 98L323.5 100L323 101H321.5H320L319.5 101.5L318 103L316 105L313.5 107.5L310.5 109.5L307.5 111.5L304 112.5L300 113.5L296.5 114L292.5 115L289 116.5L287 117.5L284.5 119L282 121.5L280 124.5L279.5 126V130.5V133L280 136.5L281 139.5L282 143L281.5 142.5L280 140.5L279 137.5L278.5 135L278 133L277 129L276 125.5L275.5 122L273.5 124L271.5 126L270.5 128V131V135V137.5L270 141L268.5 139L267.5 137L267 135V132L266.5 132.5L266 133L265 134.5L264.5 136.5L265 139L266 141.5L267.5 144L269.5 146.5H268.5L266.5 146L264.5 145L262 143.5L260 142.5L257.5 140.5L255.5 138L254 135.5V138L254.5 141L255.5 143L257 145L259 147L261 148.5L264 150L266.5 151L265 151.5L262 151L259.5 150.5L256.5 149.5L254 148L252 146L250.5 143L250 145.5L249 151L248 159.5L246.5 169.5V176L245.5 185.5L244.5 192L244 202L243.5 208.5L245.5 211.5L246 215.5V221.5L245.5 222.5H244L242.5 223.5L242 225L241.5 228Z"
              fill="#36434C"/>
        <path id="mouth2"
              d="M312 309L308.5 314L311.5 312.5L316 309.5L321.5 307L329.5 303.5L337.5 302.5L346 302L353 302.5L355.282 301L362.5 299.5L369.5 300.5L379.773 304.5L389 306.5H393.5L392 304.5L387.5 301L380 296L374 292L367.5 288.5L361.5 287.5L358.5 289L354.5 292L351 293.5H348L345 292L341 290.5H337.5L333 292.5L326.5 296L319 302L312 309Z"
              fill="#74341C"/>
        <path id="mouth2Shadow"
              d="M331 308.5C329.167 307.5 325.4 305.5 325 305.5L329.5 304L337 302.5H348.5H353L356.5 301L361.5 299.5L368 300L375 302L377.5 303.5L375 305L370 308L366 311L362 314.5L359 318V320.5L357.5 320L353 319.5L348.5 320L344.5 321H342L341.5 318.5V315.5L337.5 312L331 308.5Z"
              fill="#B17C6C"/>
        <path id="noseShadow"
              d="M315 166L317.5 170.5L319 176.5L320 181L320.5 186.5V193L321 198.5V205V206.5L322.5 208.5L323 211V217V223L322.5 231L321 238L320 247V252.5L321 255L322.5 257L327 259.5L335 261L342.5 262L347.5 265L348.5 266.5L349.5 270.5L352 274L355 276.5H359L361 275L362.5 270.5L364 264L365 262L370 261L374.5 260L378.5 258.5L381 257L382.5 255L381.5 253.5L377.5 248.5L370.5 243.5L362.5 239.5L353 238H344.5L336.5 239L336 237.5L337.5 232L339.5 225L340 218V208.5V200.5L339.5 193L337.5 185L334.5 176.5L331.5 171.5L329 168L326.5 166.5H323L318.5 166H315Z"
              fill="#B17C6C"/>
        <g id="noseHole">
            <path d="M359.292 247.196L357.167 246.5L357.521 247.543L358.938 248.935L361.417 250.674L364.25 252.065L366.729 252.761L368.5 253.109L368.146 251.717L366.729 249.63L364.604 248.587L362.479 247.891L359.292 247.196Z"
                  fill="#5D3D41"/>
            <path d="M344.062 251.37L343 252.065L340.875 253.109L338.75 253.804L336.271 254.5H334.5V254.152L335.562 252.761L336.271 251.717L337.333 250.674L339.104 249.63L340.875 248.935L342.292 248.587L344.062 247.891L345.479 247.543L346.188 247.196L345.833 248.935L345.125 250.326L344.062 251.37Z"
                  fill="#5D3D41"/>
            <path d="M359.292 247.196L357.167 246.5L357.521 247.543L358.938 248.935L361.417 250.674L364.25 252.065L366.729 252.761L368.5 253.109L368.146 251.717L366.729 249.63L364.604 248.587L362.479 247.891L359.292 247.196Z"
                  stroke="black"/>
            <path d="M344.062 251.37L343 252.065L340.875 253.109L338.75 253.804L336.271 254.5H334.5V254.152L335.562 252.761L336.271 251.717L337.333 250.674L339.104 249.63L340.875 248.935L342.292 248.587L344.062 247.891L345.479 247.543L346.188 247.196L345.833 248.935L345.125 250.326L344.062 251.37Z"
                  stroke="black"/>
        </g>
        <path id="eayleachL"
              d="M300 164.244L307 165.221H311.789L318 165.5L320.139 165.709L321.5 165.5L323 165.221L323.5 164.733L325.5 165.709L326.5 165.221L328.5 165L329.207 163L329.207 160.337L327.5 161.5V160.337H326.285V158.081L324.201 158.803H323.201L323.5 157L321 157.895L321.5 153.5L320 156L318.5 152.5L317 155.942L316.5 154.5L314.5 155L313 154.5L311 154.477L306 153.5H296L290.5 153.988L285.5 155L282 156.5L276.5 160L272.5 163.5L268 167.174L263.5 171.57L261.5 174.5L267 171.081L275.5 167.174L283 165.221L291.5 164.244H300Z"
              fill="#36434C" stroke="black"/>
        <path id="eayleachR"
              d="M402.5 167L395.5 168L391 168.5H385.5L384.5 166.5L381.5 168L380 168.5L379 167.5L377 168.5L376 168L375 169L373 166V164L374.5 164.5L375 163L376 161.5L377.5 163L378.5 161.5H379.5V160L381.5 160.5L382 158L383.5 159.5L384 157L385.5 158.5L386 156L388 158L388.5 157.5L391.5 157L399.5 156.5L406.5 156L412 156.5L416.5 157L420.5 158.5L425.5 161L430 165L434.5 170L439 174.5L441 177.5L435.5 174L427 170L419.5 168L411 167H402.5Z"
              fill="#36434C" stroke="black"/>
        <path id="eyeShadow"
              d="M374.5 215.5L380.5 218.5H381L385.5 217.5L393 216H399.5L406.5 215.5H410.5H420.5L430.5 216H436L434.5 215L426.5 213.5L421.5 212.5L413.5 210.5L405.5 206L402.5 204.5L398.5 202.5L396 200.5L395 197V193L395.5 189.5L396.5 186.5L398 183L400 180L403.5 177L406.5 174.5L410.5 172.5H421.5L419 170L417 169.5L409.5 168H396L387.5 169L378 171L374.5 172.5L369.5 177L367.5 180L366.5 186.5V193L367.5 199V206L370.5 211.5L374.5 215.5Z"
              fill="#B17C6C"/>
        <path id="eyL"
              d="M402.608 188.139L411.709 187.482L416.282 186.905L423.391 186.062L430.049 184.675L435.213 183.149L433.222 182.963L426.159 183.308L420.637 183.294L413.667 182.643L408.642 182.676L402.17 182.072L397.643 182.151L391.935 184.129L387.72 186.246L384.5 188.457L393.056 188.251L402.608 188.139Z"
              fill="#74341C"/>
        <path id="eyR"
              d="M295.119 190.86L315.642 191.999L315.616 190.499L310.572 188.087L303.512 184.711L292.496 183.906L281.015 185.108L271.561 187.775L264.624 191.398L295.119 190.86Z"
              fill="#74341C"/>
        <g id="glasses">
            <path id="glassEye" fill-rule="evenodd" clip-rule="evenodd"
                  d="M409.5 247.5C432.144 247.5 450.5 229.144 450.5 206.5C450.5 183.856 432.144 165.5 409.5 165.5C386.856 165.5 368.5 183.856 368.5 206.5C368.5 229.144 386.856 247.5 409.5 247.5ZM409.5 244.5C430.487 244.5 447.5 227.487 447.5 206.5C447.5 185.513 430.487 168.5 409.5 168.5C388.513 168.5 371.5 185.513 371.5 206.5C371.5 227.487 388.513 244.5 409.5 244.5Z"
                  fill="#DC9442"/>
            <path id="glassEye_2" fill-rule="evenodd" clip-rule="evenodd"
                  d="M291.5 255.5C314.144 255.5 332.5 237.144 332.5 214.5C332.5 191.856 314.144 173.5 291.5 173.5C268.856 173.5 250.5 191.856 250.5 214.5C250.5 237.144 268.856 255.5 291.5 255.5ZM291.5 252.5C312.487 252.5 329.5 235.487 329.5 214.5C329.5 193.513 312.487 176.5 291.5 176.5C270.513 176.5 253.5 193.513 253.5 214.5C253.5 235.487 270.513 252.5 291.5 252.5Z"
                  fill="#DC9442"/>
            <path id="glassLink"
                  d="M332 194.5L329 197L328 198.5L330 203L331 201.5L332 200L334.5 198L337.5 196.5L340.5 195L344 193.5L348 193L353 192.5H356.5L360.5 193L364.5 193.5L367.5 194.5L369.5 195.5L370.5 196.5L371.5 194L370 193L368 191.5L365.5 190.5L361.5 189.5L357 189H351.5L348 189.5L343 190.5L339 191.5L336.5 192.5L332 194.5Z"
                  fill="#DC9442"/>
        </g>
        <path id="eyeL" fill-rule="evenodd" clip-rule="evenodd"
              d="M291 215C297.075 215 302 210.075 302 204C302 197.925 297.075 193 291 193C284.925 193 280 197.925 280 204C280 210.075 284.925 215 291 215Z"
              fill="#74341C"/>
        <path id="eyeR" fill-rule="evenodd" clip-rule="evenodd"
              d="M412 212C418.075 212 423 207.075 423 201C423 194.925 418.075 190 412 190C405.925 190 401 194.925 401 201C401 207.075 405.925 212 412 212Z"
              fill="#74341C"/>
        <g id="shines">
            <circle id="shineL" cx="294" cy="198" r="3" fill="white"/>
            <circle id="shineR" cx="416" cy="196" r="3" fill="white"/>
        </g>
    </g>
</svg>
